# xmcd
#
# Track frame offsets: 
#        150
#        15251
#        31254
#        41134
#        53391
#        69526
#        82844
#        98858
#        110213
#        123637
#        138535
#        154224
#
# Disc length: 2253 seconds
#
# Revision: 0
# Processed by: cddbd v1.5.2PL0 Copyright (c) Steve Scherf et al.
# Submitted via: ExactAudioCopy v0.99pb5
#
DISCID=9908cb0c
DTITLE=Jelka Van Houten - Hard Place For A Dreamer
DYEAR=2015
DGENRE=Pop
TTITLE0=Time Flies
TTITLE1=Hard Place For A Dreamer
TTITLE2=I Couldn't Care Less
TTITLE3=Instantly
TTITLE4=There's No Place Like Home
TTITLE5=Postcard
TTITLE6=Give Me An Isle
TTITLE7=A Part Of Me
TTITLE8=The Nightingale
TTITLE9=At The Roundhouse
TTITLE10=Good Friends
TTITLE11=All In Time
EXTD=
EXTT0=
EXTT1=
EXTT2=
EXTT3=
EXTT4=
EXTT5=
EXTT6=
EXTT7=
EXTT8=
EXTT9=
EXTT10=
EXTT11=
PLAYORDER=
